<svg xmlns="http://www.w3.org/2000/svg" xmlns:xlink="http://www.w3.org/1999/xlink" width="113.983" height="131.652" viewBox="0 0 113.983 131.652"><defs><style>.a{fill:#e6e6e6;}.b{fill:#fff;}.c{fill:#ea212e;}.d{fill:url(#a);}</style><linearGradient id="a" x1="0.088" y1="4.432" x2="0.902" y2="3.814" gradientUnits="objectBoundingBox"><stop offset="0" stop-color="#f1f1f2" stop-opacity="0.2"/><stop offset="1" stop-color="#f1f1f2" stop-opacity="0"/></linearGradient></defs><g transform="translate(-878 -3856)"><path class="a" d="M113.049,31.382a3.672,3.672,0,0,0-2.645-3.042L59.753,11.148a4.953,4.953,0,0,0-2.777,0L6.193,28.341a3.7,3.7,0,0,0-2.645,3.042C-.023,65.9,5.8,92.084,21.4,109.54c16,17.457,35.971,18.911,36.9,18.911h.529c.793,0,20.9-1.322,36.765-18.911C111.065,92.084,116.884,65.767,113.049,31.382Z" transform="translate(876.303 3859.2)"/><path class="b" d="M114.707,22.534a3.846,3.846,0,0,0-2.645-3.306L60.353.448a4.953,4.953,0,0,0-2.777,0L5.735,19.228A3.882,3.882,0,0,0,3.09,22.534c-3.967,37.691,1.984,66.124,17.986,84.9C37.342,126.612,57.708,128.2,58.634,128.2h.529c.793,0,21.292-1.455,37.558-20.631,15.87-18.911,21.953-47.609,17.986-85.035Z" transform="translate(876.099 3855.75)"/><path class="c" d="M106.616,25.021a3.474,3.474,0,0,0-2.248-2.909L58.214,5.448a3.67,3.67,0,0,0-2.38,0L9.811,22.112a3.474,3.474,0,0,0-2.248,2.909C3.992,58.48,9.282,83.739,23.433,100.534c14.415,17.06,32.665,18.382,33.326,18.382h.529c.661,0,18.911-1.322,33.326-18.25,14.15-16.928,19.44-42.319,16-75.646ZM39.17,106.75c-.661-.4-1.058-.661-1.719-1.058,12.3-2.645,22.35-7.8,31.475-13.357A113.281,113.281,0,0,1,39.17,106.75ZM98.285,50.28A53.3,53.3,0,0,1,92.334,60.2,76.09,76.09,0,0,1,75.671,75.407,120.435,120.435,0,0,1,55.04,87.045a68.856,68.856,0,0,1-12.167,4.232c-4.1,1.058-9.39,2.116-14.15,1.058a12.711,12.711,0,0,1-4.761-1.719,52.715,52.715,0,0,1-4.1-8.2c.132-3.571,1.984-6.745,3.571-9.39,4.1-6.48,9.919-11.373,16.663-15.208,6.745-4.1,14.547-7.538,25.127-7.406a44.487,44.487,0,0,0-19.7,7.935c-4.893,3.438-10.58,8.464-12.167,15.076-1.058,4.629,1.058,7.538,4.232,8.861s8.067,1.19,12.035.661c8.067-.926,14.812-4.232,20.234-7.538,8.332-5.025,15.737-11.77,20.631-20.5a34.012,34.012,0,0,0,3.7-9.654C95.772,35.733,90.879,30.575,84,28.724s-17.06-.4-23.937,1.851C46.047,34.94,34.806,42.213,25.152,50.809A101.653,101.653,0,0,0,14.7,61.654c-.264-1.851-.529-3.571-.661-5.422a93.889,93.889,0,0,1,9.39-8.332,99.649,99.649,0,0,1,22.35-13.886,88.645,88.645,0,0,1,28.83-7.935l4.629-.132c9.919.132,18.118,2.909,20.5,11.241,1.322,4.5,0,9.39-1.455,13.092Zm-30.02,1.058a44.684,44.684,0,0,0,5.951,0,10.691,10.691,0,0,0,1.984.132c.661-.132,1.455-1.058,2.116-1.455,1.984-1.587,3.967-3.438,5.819-4.893-.661,1.984-1.984,4.1-2.909,6.348,2.645.132,5.554.132,8.464.264-3.306,1.455-6.745,2.645-10.315,3.835-1.058,2.248-2.116,4.629-3.306,6.877-1.19-1.322-2.116-3.042-3.306-4.364l-9.919,3.7c2.777-2.116,5.422-4.232,8.2-6.48C70.248,54.115,69.19,52.661,68.265,51.338Z" transform="translate(877.577 3857.362)"/><path class="d" d="M101.814,24.163A3.159,3.159,0,0,0,99.7,21.386L57.379,5.648a2.92,2.92,0,0,0-2.116,0L12.944,21.386a3.264,3.264,0,0,0-2.116,2.777C7.654,55.77,12.547,79.707,25.64,95.444c13.225,16.134,29.888,17.324,30.681,17.324h.529c.661,0,17.457-1.19,30.681-17.324C100.1,79.707,105.121,55.77,101.814,24.163Z" transform="translate(878.676 3857.427)"/></g></svg>